<mxfile host="Electron" modified="2024-03-21T05:20:20.610Z" agent="Mozilla/5.0 (Macintosh; Intel Mac OS X 10_15_7) AppleWebKit/537.36 (KHTML, like Gecko) draw.io/24.0.4 Chrome/120.0.6099.109 Electron/28.1.0 Safari/537.36" etag="wL4JlP1kfhV93N2tZNBs" version="24.0.4" type="device">
  <diagram name="Page-1" id="m05WSQcq9RQ_x-or3BNO">
    <mxGraphModel dx="526" dy="381" grid="1" gridSize="10" guides="1" tooltips="1" connect="1" arrows="1" fold="1" page="1" pageScale="1" pageWidth="850" pageHeight="1100" math="0" shadow="0">
      <root>
        <mxCell id="0" />
        <mxCell id="1" parent="0" />
        <mxCell id="1bTqT5keEQRfaGWeGJyd-1" value="" style="shape=mxgraph.cisco.servers.server_with_router;sketch=0;html=1;pointerEvents=1;dashed=0;fillColor=#036897;strokeColor=#ffffff;strokeWidth=2;verticalLabelPosition=bottom;verticalAlign=top;align=center;outlineConnect=0;" vertex="1" parent="1">
          <mxGeometry x="537" y="295" width="50" height="80" as="geometry" />
        </mxCell>
        <mxCell id="1bTqT5keEQRfaGWeGJyd-2" value="" style="shape=mxgraph.cisco.computers_and_peripherals.pc;sketch=0;html=1;pointerEvents=1;dashed=0;fillColor=#036897;strokeColor=#ffffff;strokeWidth=2;verticalLabelPosition=bottom;verticalAlign=top;align=center;outlineConnect=0;" vertex="1" parent="1">
          <mxGeometry x="185" y="298" width="78" height="70" as="geometry" />
        </mxCell>
        <mxCell id="1bTqT5keEQRfaGWeGJyd-4" value="" style="endArrow=none;html=1;rounded=0;strokeWidth=2;" edge="1" parent="1">
          <mxGeometry width="50" height="50" relative="1" as="geometry">
            <mxPoint x="249" y="332" as="sourcePoint" />
            <mxPoint x="339" y="332" as="targetPoint" />
          </mxGeometry>
        </mxCell>
        <mxCell id="1bTqT5keEQRfaGWeGJyd-5" value="" style="endArrow=none;html=1;rounded=0;strokeWidth=2;entryX=0.06;entryY=0.438;entryDx=0;entryDy=0;entryPerimeter=0;" edge="1" parent="1">
          <mxGeometry width="50" height="50" relative="1" as="geometry">
            <mxPoint x="437" y="330" as="sourcePoint" />
            <mxPoint x="537" y="330.0400000000001" as="targetPoint" />
          </mxGeometry>
        </mxCell>
        <mxCell id="1bTqT5keEQRfaGWeGJyd-8" value="&lt;span style=&quot;caret-color: rgb(255, 255, 255); text-align: start;&quot;&gt;TarProbe Client&lt;/span&gt;" style="text;html=1;align=center;verticalAlign=middle;whiteSpace=wrap;rounded=0;" vertex="1" parent="1">
          <mxGeometry x="174" y="368" width="100" height="30" as="geometry" />
        </mxCell>
        <mxCell id="1bTqT5keEQRfaGWeGJyd-9" value="&lt;div style=&quot;text-align: start;&quot;&gt;&lt;span style=&quot;caret-color: rgb(255, 255, 255);&quot;&gt;Evasive SPQ&lt;/span&gt;&lt;/div&gt;" style="text;html=1;align=center;verticalAlign=middle;whiteSpace=wrap;rounded=0;" vertex="1" parent="1">
          <mxGeometry x="340" y="368" width="100" height="30" as="geometry" />
        </mxCell>
        <mxCell id="1bTqT5keEQRfaGWeGJyd-10" value="&lt;div style=&quot;text-align: start;&quot;&gt;&lt;span style=&quot;caret-color: rgb(255, 255, 255);&quot;&gt;TarProbe Server&lt;/span&gt;&lt;/div&gt;" style="text;html=1;align=center;verticalAlign=middle;whiteSpace=wrap;rounded=0;" vertex="1" parent="1">
          <mxGeometry x="512" y="368" width="100" height="30" as="geometry" />
        </mxCell>
        <mxCell id="1bTqT5keEQRfaGWeGJyd-12" value="" style="shape=mxgraph.cisco.switches.workgroup_switch;sketch=0;html=1;pointerEvents=1;dashed=0;fillColor=#036897;strokeColor=#ffffff;strokeWidth=2;verticalLabelPosition=bottom;verticalAlign=top;align=center;outlineConnect=0;" vertex="1" parent="1">
          <mxGeometry x="340" y="310" width="101" height="50" as="geometry" />
        </mxCell>
      </root>
    </mxGraphModel>
  </diagram>
</mxfile>
